<svg width="137" height="51" viewBox="0 0 137 51" fill="none" xmlns="http://www.w3.org/2000/svg">
<path d="M102 1.19999L102 50L63.6 50L63.6 1.19999L102 1.19999ZM135.2 34.4L135.2 48.2L112 48.2L112 35.6C112 33.2 111.533 31.4667 110.6 30.4C109.667 29.2 107.733 28.6 104.8 28.6L97.4 28.6L97.4 1.19999L104.6 1.19999C114.867 1.19999 122.533 4.13333 127.6 9.99999C132.667 15.7333 135.2 23.8667 135.2 34.4ZM39.4 1.2L39.4 50L1 50L0.999998 1.2L39.4 1.2Z" fill="black"/>
<path d="M104.6 1.20019L63.5996 1.20019L63.5996 50L102 50L102 28.5996L104.8 28.5996L105.338 28.6074C107.971 28.6777 109.725 29.2753 110.6 30.4004C111.475 31.4004 111.939 32.9861 111.994 35.1582L112 35.5996L111 35.5996C111 33.2875 110.543 31.853 109.848 31.0586L109.828 31.0371L109.811 31.0137C109.184 30.2087 107.688 29.5996 104.8 29.5996L103 29.5996L103 51L62.5996 51L62.5996 0.200193L104.6 0.200191C115.052 0.20019 123.035 3.19207 128.349 9.33886L128.35 9.33789C133.63 15.3129 136.2 23.7154 136.2 34.4004L136.2 49.2002L111 49.2002L111 35.5996L112 35.5996L112 48.2002L135.2 48.2002L135.2 34.4004L135.192 33.4199C135.039 23.3609 132.508 15.5542 127.6 9.99999C122.533 4.13346 114.866 1.20019 104.6 1.20019ZM0.999998 1.2002L1 50L39.4004 50L39.4004 1.20019L0.999998 1.2002ZM40.4004 0.200194L40.4004 51L0 51L-2.22053e-06 0.200195L40.4004 0.200194Z" fill="black"/>
</svg>
